<svg viewBox="0 -33.5 258 258" fill="none" xmlns="http://www.w3.org/2000/svg">
<path d="M71.8749 5.5V25.7309H91.6079C93.2648 25.7309 94.6079 27.074 94.6079 28.7309V45.1606C94.6079 46.8175 95.9511 48.1606 97.6079 48.1606H148.733C150.39 48.1606 151.733 46.8175 151.733 45.1606V28.7309C151.733 27.074 153.076 25.7309 154.733 25.7309H176.04V5.5C176.04 3.84315 177.383 2.5 179.04 2.5H196.66C198.317 2.5 199.66 3.84315 199.66 5.5V22.7309C199.66 24.3877 198.317 25.7309 196.66 25.7309H176.04V45.1606C176.04 46.8175 177.383 48.1606 179.04 48.1606H196.597C198.278 48.1606 199.631 49.5419 199.596 51.2227L199.209 69.9316C199.174 71.6123 200.527 72.9936 202.209 72.9936H219.393C221.05 72.9936 222.393 74.3368 222.393 75.9936V93.625C222.393 95.2819 223.736 96.625 225.393 96.625H242.004C243.661 96.625 245.004 97.9682 245.004 99.625V152.269C245.004 153.926 243.661 155.269 242.004 155.269H225.393C223.736 155.269 222.393 153.926 222.393 152.269V123.256C222.393 121.6 221.05 120.256 219.393 120.256H202.66C201.003 120.256 199.66 121.6 199.66 123.256V152.269C199.66 153.926 198.317 155.269 196.66 155.269H174.344V175.5C174.344 177.157 173.001 178.5 171.344 178.5H142.862C141.205 178.5 139.862 177.157 139.862 175.5V158.269C139.862 156.612 141.205 155.269 142.862 155.269H174.344V135.038C174.344 133.381 173.001 132.038 171.344 132.038H77.8553C76.1984 132.038 74.8553 133.381 74.8553 135.038V155.269H108.598C110.255 155.269 111.598 156.612 111.598 158.269V175.5C111.598 177.157 110.255 178.5 108.598 178.5H77.8553C76.1984 178.5 74.8553 177.157 74.8553 175.5V155.269H52.1419C50.485 155.269 49.1419 153.926 49.1419 152.269V123.256C49.1419 121.6 47.7987 120.256 46.1419 120.256H28.625C26.9681 120.256 25.625 121.6 25.625 123.256V152.269C25.625 153.926 24.2818 155.269 22.625 155.269H5.5C3.84315 155.269 2.5 153.926 2.5 152.269V99.625C2.5 97.9682 3.84315 96.625 5.5 96.625H22.625C24.2818 96.625 25.625 95.2819 25.625 93.625V75.9936C25.625 74.3368 26.9681 72.9936 28.625 72.9936H46.1419C47.7987 72.9936 49.1419 71.6505 49.1419 69.9936V51.1606C49.1419 49.5038 50.485 48.1606 52.1419 48.1606H68.8749C70.5318 48.1606 71.8749 46.8175 71.8749 45.1606V25.7309H52.0917C50.4546 25.7309 49.1197 24.4184 49.0921 22.7815L48.8014 5.55061C48.7731 3.8742 50.1243 2.5 51.801 2.5H68.8749C70.5318 2.5 71.8749 3.84315 71.8749 5.5Z" fill="#5AA6FF"/>
<path d="M71.8749 25.7309V5.5C71.8749 3.84315 70.5318 2.5 68.8749 2.5H51.801C50.1243 2.5 48.7731 3.8742 48.8014 5.55061L49.0921 22.7815C49.1197 24.4184 50.4546 25.7309 52.0917 25.7309H71.8749ZM71.8749 25.7309H91.6079C93.2648 25.7309 94.6079 27.074 94.6079 28.7309V45.1606C94.6079 46.8175 95.9511 48.1606 97.6079 48.1606H148.733C150.39 48.1606 151.733 46.8175 151.733 45.1606V28.7309C151.733 27.074 153.076 25.7309 154.733 25.7309H176.04M71.8749 25.7309V45.1606C71.8749 46.8175 70.5318 48.1606 68.8749 48.1606H52.1419C50.485 48.1606 49.1419 49.5038 49.1419 51.1606V69.9936C49.1419 71.6505 47.7987 72.9936 46.1419 72.9936H28.625C26.9681 72.9936 25.625 74.3368 25.625 75.9936V93.625C25.625 95.2819 24.2818 96.625 22.625 96.625H5.5C3.84315 96.625 2.5 97.9682 2.5 99.625L2.5 152.269C2.5 153.926 3.84315 155.269 5.5 155.269H22.625C24.2818 155.269 25.625 153.926 25.625 152.269V123.256C25.625 121.6 26.9681 120.256 28.625 120.256H46.1419C47.7987 120.256 49.1419 121.6 49.1419 123.256V152.269C49.1419 153.926 50.485 155.269 52.1419 155.269H74.8553M176.04 25.7309V5.5C176.04 3.84315 177.383 2.5 179.04 2.5H196.66C198.317 2.5 199.66 3.84315 199.66 5.5V22.7309C199.66 24.3877 198.317 25.7309 196.66 25.7309H176.04ZM176.04 25.7309V45.1606C176.04 46.8175 177.383 48.1606 179.04 48.1606H196.597C198.278 48.1606 199.631 49.5419 199.596 51.2227L199.209 69.9316C199.174 71.6123 200.527 72.9936 202.209 72.9936H219.393C221.05 72.9936 222.393 74.3368 222.393 75.9936V93.625C222.393 95.2819 223.736 96.625 225.393 96.625H242.004C243.661 96.625 245.004 97.9682 245.004 99.625V152.269C245.004 153.926 243.661 155.269 242.004 155.269H225.393C223.736 155.269 222.393 153.926 222.393 152.269V123.256C222.393 121.6 221.05 120.256 219.393 120.256H202.66C201.003 120.256 199.66 121.6 199.66 123.256V152.269C199.66 153.926 198.317 155.269 196.66 155.269H174.344M174.344 155.269V175.5C174.344 177.157 173.001 178.5 171.344 178.5H142.862C141.205 178.5 139.862 177.157 139.862 175.5V158.269C139.862 156.612 141.205 155.269 142.862 155.269H174.344ZM174.344 155.269V135.038C174.344 133.381 173.001 132.038 171.344 132.038H77.8553C76.1984 132.038 74.8553 133.381 74.8553 135.038V155.269M74.8553 155.269H108.598C110.255 155.269 111.598 156.612 111.598 158.269V175.5C111.598 177.157 110.255 178.5 108.598 178.5H77.8553C76.1984 178.5 74.8553 177.157 74.8553 175.5V155.269Z" stroke="black" stroke-width="5"/>
<path d="M75.5944 69.5025H92.693C92.9691 69.5025 93.193 69.7264 93.193 70.0025V87.9898C93.193 88.266 92.9691 88.4898 92.693 88.4898H75.5944C75.3182 88.4898 75.0944 88.266 75.0944 87.9898V70.0025C75.0944 69.7264 75.3182 69.5025 75.5944 69.5025Z" fill="black" stroke="black" stroke-width="5"/>
<mask id="path-4-inside-1_202_2" fill="white">
<rect x="150.525" y="67.0025" width="23.0988" height="23.9877" rx="3"/>
</mask>
<rect x="150.525" y="67.0025" width="23.0988" height="23.9877" rx="3" fill="black" stroke="black" stroke-width="10" mask="url(#path-4-inside-1_202_2)"/>
</svg>
